# xmcd CD database file
#
# Track frame offsets:
#	183
#	19673
#	37985
#	57583
#	76008
#	90423
#	108733
#	129315
#	155298
#	178090
#	193513
#	210038
#	229200
#	250298
#
# Disc length: 3569 seconds
#
# Revision: 0
# Processed by: cddbd v1.4PL0 Copyright (c) Steve Scherf et al.
# Submitted via: CDex 1.50beta9
#
DISCID=a80def0e
DTITLE=Dr. Mablues and the Detail Horns - Live
DYEAR=1993
DGENRE=Blues
TTITLE0=I've got everything
TTITLE1=Hold on to me
TTITLE2=She's fine
TTITLE3=These arms of mine
TTITLE4=Soulman
TTITLE5=Strange ways
TTITLE6=Come back, baby
TTITLE7=Blues on my mind
TTITLE8=Gorgeous lady
TTITLE9=Bad case of lovin' you
TTITLE10=This boy
TTITLE11=Lucille
TTITLE12=Hallelujah
TTITLE13=Highway to hell
EXTD=YEAR: 1993
EXTT0=
EXTT1=
EXTT2=
EXTT3=
EXTT4=
EXTT5=
EXTT6=
EXTT7=
EXTT8=
EXTT9=
EXTT10=
EXTT11=
EXTT12=
EXTT13=
PLAYORDER=
